<svg width="30" height="24" viewBox="0 0 30 24" fill="none" xmlns="http://www.w3.org/2000/svg">
<path d="M7.35752 16.6814H12.8665C12.3523 18.9111 10.7241 20.1938 8.38585 20.1938C5.37429 20.1938 3.42779 18.1799 3.42779 15.0751C3.42779 12.0422 5.36205 9.9923 8.25119 9.9923C9.9406 9.9923 11.2628 10.6996 11.9728 11.9942L11.985 12.0182H15.7923L15.7679 11.9463C14.7395 8.84148 11.9238 6.9834 8.23895 6.9834C5.96191 6.9834 3.88075 7.78657 2.36273 9.24906C0.832465 10.7235 0 12.7974 0 15.0631C0 19.7383 3.47676 23.1308 8.26343 23.1308C8.49603 23.1308 8.71639 23.1188 8.93675 23.1068C12.9766 22.8071 16.1474 19.4146 16.1474 15.3867V14.152H7.34527V16.6814H7.35752Z" fill="white"/>
<g clip-path="url(#clip0_444_698)">
<path d="M17.9266 12.003C17.8704 12.0045 17.8146 11.9927 17.7637 11.9688C17.6854 11.9366 17.6184 11.882 17.5711 11.8118C17.5238 11.7416 17.4983 11.659 17.4979 11.5744V3.76356C17.504 3.48825 17.5644 3.21684 17.6754 2.96484C17.7864 2.71285 17.9461 2.4852 18.1451 2.2949C18.3442 2.10461 18.5788 1.95539 18.8355 1.85579C19.0922 1.75619 19.3661 1.70815 19.6414 1.71441H26.5005C26.7758 1.70815 27.0496 1.75619 27.3064 1.85579C27.5631 1.95539 27.7977 2.10461 27.9968 2.2949C28.1958 2.4852 28.3554 2.71285 28.4665 2.96484C28.5775 3.21684 28.6378 3.48825 28.6439 3.76356V7.81043C28.6378 8.08574 28.5775 8.35715 28.4665 8.60915C28.3554 8.86114 28.1958 9.08879 27.9968 9.27909C27.7977 9.46938 27.5631 9.6186 27.3064 9.7182C27.0496 9.8178 26.7758 9.86584 26.5005 9.85958H20.2458L18.231 11.8787C18.1909 11.9185 18.1434 11.9499 18.0912 11.9712C18.039 11.9926 17.983 12.0034 17.9266 12.003ZM19.6414 2.5718C19.313 2.56019 18.9935 2.67904 18.7525 2.90235C18.5115 3.12566 18.3687 3.43529 18.3553 3.76356V10.5412L19.7657 9.12652C19.8058 9.08678 19.8533 9.05535 19.9055 9.03402C19.9577 9.01268 20.0137 9.00187 20.0701 9.00219H26.5005C26.8288 9.0138 27.1484 8.89495 27.3894 8.67164C27.6304 8.44833 27.7732 8.1387 27.7866 7.81043V3.76356C27.7732 3.43529 27.6304 3.12566 27.3894 2.90235C27.1484 2.67904 26.8288 2.56019 26.5005 2.5718H19.6414Z" fill="white"/>
<path d="M23.0709 6.42963C23.426 6.42963 23.7139 6.14174 23.7139 5.78659C23.7139 5.43145 23.426 5.14355 23.0709 5.14355C22.7158 5.14355 22.4279 5.43145 22.4279 5.78659C22.4279 6.14174 22.7158 6.42963 23.0709 6.42963Z" fill="white"/>
<path d="M25.4288 6.42963C25.7839 6.42963 26.0718 6.14174 26.0718 5.78659C26.0718 5.43145 25.7839 5.14355 25.4288 5.14355C25.0737 5.14355 24.7858 5.43145 24.7858 5.78659C24.7858 6.14174 25.0737 6.42963 25.4288 6.42963Z" fill="white"/>
<path d="M20.7131 6.42963C21.0682 6.42963 21.3561 6.14174 21.3561 5.78659C21.3561 5.43145 21.0682 5.14355 20.7131 5.14355C20.358 5.14355 20.0701 5.43145 20.0701 5.78659C20.0701 6.14174 20.358 6.42963 20.7131 6.42963Z" fill="white"/>
</g>
<defs>
<clipPath id="clip0_444_698">
<rect width="13.7182" height="13.7182" fill="white" transform="translate(16.2118)"/>
</clipPath>
</defs>
</svg>
