<svg width="14" height="14" viewBox="0 0 14 14" fill="none" xmlns="http://www.w3.org/2000/svg">
<path d="M6.99998 0.333008C10.6824 0.333008 13.6677 3.31824 13.6677 7.00071C13.6677 10.6832 10.6824 13.6684 6.99998 13.6684C3.31751 13.6684 0.332275 10.6832 0.332275 7.00071C0.332275 3.31824 3.31751 0.333008 6.99998 0.333008ZM8.95924 10.0005H5.04071C5.4754 11.61 6.23097 12.6684 6.99998 12.6684C7.76898 12.6684 8.52455 11.61 8.95924 10.0005ZM4.00552 10.0009L2.19053 10.0008C2.82942 11.0229 3.78505 11.8266 4.91997 12.2746C4.57179 11.728 4.28446 11.0438 4.07312 10.2642L4.00552 10.0009ZM11.8094 10.0008L9.99444 10.0009C9.77859 10.8901 9.46685 11.6673 9.07928 12.2746C10.1439 11.8546 11.0504 11.1219 11.686 10.1899L11.8094 10.0008ZM3.72892 5.66694H1.49052L1.48735 5.67841C1.38596 6.10265 1.33228 6.54541 1.33228 7.00071C1.33228 7.70481 1.46067 8.37893 1.69532 9.00092L3.81076 9.00067C3.71589 8.36794 3.66561 7.69579 3.66561 7.00071C3.66561 6.5447 3.68725 6.09857 3.72892 5.66694ZM9.26459 5.66698H4.73536C4.69001 6.09383 4.66561 6.5403 4.66561 7.00071C4.66561 7.70704 4.72304 8.38059 4.82543 9.00077H9.17452C9.27691 8.38059 9.33434 7.70704 9.33434 7.00071C9.33434 6.5403 9.30994 6.09383 9.26459 5.66698ZM12.5097 5.66639L10.271 5.66695C10.3127 6.09857 10.3343 6.5447 10.3343 7.00071C10.3343 7.69579 10.2841 8.36794 10.1892 9.00067L12.3046 9.00092C12.5393 8.37893 12.6677 7.70481 12.6677 7.00071C12.6677 6.5411 12.613 6.09428 12.5097 5.66639ZM4.92068 1.72681L4.90541 1.73262C3.54053 2.27576 2.43652 3.33397 1.83341 4.66721L3.86549 4.66746C4.07439 3.49893 4.43895 2.48164 4.92068 1.72681ZM6.99998 1.33301L6.92287 1.33654C6.07925 1.41371 5.26426 2.74836 4.88578 4.66718H9.11417C8.73675 2.75373 7.92527 1.4212 7.08417 1.33722L6.99998 1.33301ZM9.07998 1.72685L9.1512 1.84291C9.59734 2.58456 9.93609 3.55781 10.1345 4.66746L12.1665 4.66721C11.5901 3.39294 10.5561 2.36992 9.27411 1.8077L9.07998 1.72685Z" fill="#6B7390"/>
</svg>
