<svg width="17" height="17" viewBox="0 0 17 17" fill="none" xmlns="http://www.w3.org/2000/svg">
<path d="M15.5834 10.3063V14.1667C15.5834 14.5424 15.4342 14.9027 15.1685 15.1684C14.9028 15.4341 14.5425 15.5834 14.1667 15.5834H2.83341C2.45769 15.5834 2.09736 15.4341 1.83168 15.1684C1.566 14.9027 1.41675 14.5424 1.41675 14.1667V2.83335C1.41675 2.45763 1.566 2.0973 1.83168 1.83162C2.09736 1.56594 2.45769 1.41669 2.83341 1.41669H6.7505" stroke="#4B7EFE" stroke-width="1.5" stroke-linecap="round" stroke-linejoin="bevel"/>
<path d="M15.1514 1.75665L6.55933 9.9804" stroke="#4B7EFE" stroke-width="1.5" stroke-linecap="round" stroke-linejoin="bevel"/>
<path d="M12.0417 1.34582H14.2305C14.5709 1.33033 14.9037 1.44948 15.1569 1.67749C15.41 1.9055 15.5633 2.22403 15.5834 2.56416V4.88749" stroke="#4B7EFE" stroke-width="1.5" stroke-linecap="round" stroke-linejoin="bevel"/>
</svg>
