<svg width="14" height="14" viewBox="0 0 14 14" fill="none" xmlns="http://www.w3.org/2000/svg">
<g clip-path="url(#clip0_539_63024)">
<path d="M14.0002 8.75035C14.0002 8.93119 13.9127 9.10619 13.7668 9.21702L11.4335 10.967C11.3285 11.0429 11.206 11.0837 11.0835 11.0837C10.996 11.0837 10.9027 11.0604 10.821 11.0195C10.6227 10.9204 10.5002 10.722 10.5002 10.5004V9.33369H2.91683C2.596 9.33369 2.3335 9.07119 2.3335 8.75035C2.3335 8.42952 2.596 8.16702 2.91683 8.16702H10.5002V7.00035C10.5002 6.77869 10.6227 6.57452 10.821 6.48119C11.0193 6.38202 11.2585 6.39952 11.4335 6.53369L13.7668 8.28369C13.9127 8.39452 14.0002 8.56952 14.0002 8.75035Z" fill="#2E50C8"/>
<path d="M10.5 1.16667V5.25C10.5 5.57083 10.2375 5.83333 9.91667 5.83333C9.59583 5.83333 9.33333 5.57083 9.33333 5.25V1.45833C9.33333 1.295 9.205 1.16667 9.04167 1.16667H1.45833C1.295 1.16667 1.16667 1.295 1.16667 1.45833V12.5417C1.16667 12.705 1.295 12.8333 1.45833 12.8333H9.04167C9.205 12.8333 9.33333 12.705 9.33333 12.5417V12.25C9.33333 11.9292 9.59583 11.6667 9.91667 11.6667C10.2375 11.6667 10.5 11.9292 10.5 12.25V12.8333C10.5 13.475 9.975 14 9.33333 14H1.16667C0.525 14 0 13.475 0 12.8333V1.16667C0 0.525 0.525 0 1.16667 0H9.33333C9.975 0 10.5 0.525 10.5 1.16667Z" fill="#2E50C8"/>
</g>
<defs>
<clipPath id="clip0_539_63024">
<rect width="14" height="14" fill="white"/>
</clipPath>
</defs>
</svg>
