<svg width="16" height="17" viewBox="0 0 16 17" fill="none" xmlns="http://www.w3.org/2000/svg">
<path d="M8.95392 11.8953H9.17356H9.45392H12.0004H12.2807H12.5004H12.7807H13.1915C13.3923 11.8953 13.5129 12.0466 13.5129 12.1745V16.0706C13.5129 16.1985 13.3923 16.3499 13.1915 16.3499H8.26284C8.06201 16.3499 7.94141 16.1985 7.94141 16.0706V12.1745C7.94141 12.0466 8.06201 11.8953 8.26284 11.8953H8.67356H8.95392ZM9.40571 14.1226C9.40571 14.8518 10.0244 15.4018 10.7271 15.4018C11.4299 15.4018 12.0486 14.8518 12.0486 14.1226C12.0486 13.3933 11.4299 12.8433 10.7271 12.8433C10.0244 12.8433 9.40571 13.3933 9.40571 14.1226Z" fill="black" stroke="#0B0B0B"/>
<g clip-path="url(#clip0_58_31528)">
<path fill-rule="evenodd" clip-rule="evenodd" d="M8.03178 1.51052L10.6766 3.92709H8.03178V1.51052ZM2.79742 9.13688C2.7222 9.14096 2.65167 9.17381 2.60112 9.2283C2.55057 9.28278 2.52408 9.35451 2.5274 9.42792C2.52503 9.46443 2.53018 9.50104 2.54256 9.53558C2.55493 9.57012 2.57427 9.60189 2.59944 9.62902C2.62461 9.65615 2.6551 9.67809 2.6891 9.69353C2.7231 9.70898 2.75994 9.71763 2.79742 9.71896H6.11598V9.13688H2.79742ZM2.79742 11.2216C2.7222 11.2257 2.65167 11.2585 2.60112 11.313C2.55057 11.3675 2.52408 11.4392 2.5274 11.5126C2.52503 11.5491 2.53018 11.5857 2.54256 11.6203C2.55493 11.6548 2.57427 11.6866 2.59944 11.7137C2.62461 11.7409 2.6551 11.7628 2.6891 11.7782C2.7231 11.7937 2.75994 11.8023 2.79742 11.8037H6.11598V11.2216H2.79742ZM2.79742 4.96615C2.7222 4.97024 2.65167 5.00309 2.60112 5.05757C2.55057 5.11206 2.52408 5.18378 2.5274 5.25719C2.52522 5.29367 2.5305 5.3302 2.54294 5.36467C2.55539 5.39913 2.57474 5.43083 2.59987 5.45792C2.62501 5.48501 2.65542 5.50695 2.68934 5.52245C2.72325 5.53796 2.75999 5.54672 2.79742 5.54824H5.86621C5.94106 5.54382 6.01118 5.51105 6.06162 5.45693C6.11206 5.40281 6.13883 5.33161 6.13623 5.25851C6.13842 5.22197 6.13314 5.18537 6.12071 5.15083C6.10829 5.11629 6.08895 5.0845 6.06384 5.05731C6.03872 5.03011 6.00832 5.00805 5.97439 4.9924C5.94047 4.97676 5.9037 4.96783 5.86621 4.96615H2.79742ZM2.79742 2.88145C2.7222 2.88554 2.65167 2.91839 2.60112 2.97287C2.55057 3.02735 2.52408 3.09908 2.5274 3.17249C2.52503 3.20901 2.53018 3.24561 2.54256 3.28015C2.55493 3.31469 2.57427 3.34647 2.59944 3.37359C2.62461 3.40072 2.6551 3.42266 2.6891 3.43811C2.7231 3.45355 2.75994 3.4622 2.79742 3.46353H4.48505C4.56027 3.45944 4.6308 3.4266 4.68135 3.37211C4.7319 3.31763 4.75839 3.2459 4.75507 3.17249C4.75707 3.13606 4.75166 3.0996 4.73915 3.06521C4.72664 3.03082 4.70728 2.99919 4.68218 2.97214C4.65708 2.94509 4.62674 2.92315 4.5929 2.90758C4.55907 2.89201 4.52242 2.88313 4.48505 2.88145H2.79742ZM2.79742 7.05217C2.7222 7.05626 2.65167 7.08911 2.60112 7.14359C2.55057 7.19808 2.52408 7.2698 2.5274 7.34321C2.5254 7.37965 2.53081 7.41611 2.54332 7.4505C2.55583 7.48488 2.5752 7.51651 2.6003 7.54357C2.6254 7.57062 2.65574 7.59256 2.68957 7.60812C2.7234 7.62369 2.76005 7.63257 2.79742 7.63426H7.98723C8.06232 7.62983 8.13264 7.59689 8.18312 7.54248C8.2336 7.48807 8.26021 7.41654 8.25725 7.34321C8.25943 7.30674 8.25415 7.27021 8.2417 7.23574C8.22926 7.20128 8.20991 7.16958 8.18477 7.14249C8.15964 7.1154 8.12923 7.09346 8.09531 7.07796C8.06139 7.06245 8.02465 7.05368 7.98723 7.05217H2.79742ZM12.151 4.27345C12.1511 4.17993 12.1199 4.08894 12.0621 4.0143C12.0044 3.93966 11.9232 3.88546 11.831 3.85993L7.93052 0.158033C7.88981 0.108583 7.83821 0.0687018 7.77955 0.0413456C7.72089 0.0139894 7.65667 -0.000141098 7.59165 1.0621e-06H0.792513C0.58256 7.64929e-07 0.381186 0.0812649 0.2326 0.225953C0.0840135 0.370641 0.000359072 0.566929 1.39988e-06 0.771723V13.9924C-0.000194751 14.0939 0.0202245 14.1945 0.060081 14.2883C0.0999375 14.3821 0.158442 14.4673 0.23222 14.5389C0.381357 14.6829 0.582656 14.7639 0.792513 14.7641H6.12813V13.9015H0.884321V0.863909H7.14746V4.35641C7.14746 4.47132 7.19426 4.58153 7.27756 4.66278C7.36086 4.74403 7.47384 4.78968 7.59165 4.78968H11.2639V7.6145H12.151V4.27345Z" fill="#0B0B0B"/>
</g>
<defs>
<clipPath id="clip0_58_31528">
<rect width="15.1036" height="16.1825" fill="white"/>
</clipPath>
</defs>
</svg>
