<svg width="18" height="18" viewBox="0 0 18 18" fill="none" xmlns="http://www.w3.org/2000/svg">
<path d="M7.3125 1.5H10.3113C10.622 1.5 10.8738 1.75184 10.8738 2.0625C10.8738 2.34728 10.6621 2.58262 10.3876 2.61986L10.3113 2.625H9.375V15.375H10.3088C10.5936 15.375 10.8289 15.5866 10.8661 15.8611L10.8713 15.9375C10.8713 16.2223 10.6597 16.4576 10.3851 16.4949L10.3088 16.5H7.3125C7.00184 16.5 6.75 16.2481 6.75 15.9375C6.75 15.6527 6.96161 15.4174 7.23617 15.3801L7.3125 15.375H8.25V2.625H7.3125C7.02773 2.625 6.79238 2.41339 6.75514 2.13883L6.75 2.0625C6.75 1.77772 6.96161 1.54238 7.23617 1.50514L7.3125 1.5H10.3113H7.3125ZM13.6843 3.74767C15.0302 3.74859 16.121 4.83903 16.1224 6.18457L16.1246 11.8133C16.126 13.1128 15.109 14.1755 13.8271 14.2477L13.6873 14.2514L10.129 14.251V13.126H13.7314C14.4363 13.103 15.0004 12.5243 14.9996 11.8141L14.9974 6.18538C14.9967 5.46078 14.4088 4.87316 13.6839 4.87267H10.129V3.74767H13.6843ZM7.5 3.74767V4.87267H3.9375C3.21263 4.87267 2.625 5.46029 2.625 6.18517V11.8135C2.625 12.5384 3.21263 13.126 3.9375 13.126H7.49645V14.251H3.9375C2.5913 14.251 1.5 13.1596 1.5 11.8135V6.18517C1.5 4.83897 2.5913 3.74767 3.9375 3.74767H7.5Z" fill="#4A6ADA"/>
</svg>
