<svg width="17" height="17" viewBox="0 0 17 17" fill="none" xmlns="http://www.w3.org/2000/svg">
<path d="M14.5185 3.98589C15.1389 4.20392 15.5837 4.79497 15.5837 5.48991V12.5732C15.5837 14.2358 14.2358 15.5837 12.5732 15.5837H5.48991C4.79497 15.5837 4.20392 15.1389 3.98589 14.5185L5.47146 14.5209L12.5732 14.5212C13.6491 14.5212 14.5212 13.6491 14.5212 12.5732V5.48991L14.5183 5.4538L14.5185 3.98589ZM12.2168 1.41699C13.0971 1.41699 13.8106 2.13054 13.8106 3.01074V12.2168C13.8106 13.0971 13.0971 13.8106 12.2168 13.8106H3.01074C2.13054 13.8106 1.41699 13.0971 1.41699 12.2168V3.01074C1.41699 2.13054 2.13054 1.41699 3.01074 1.41699H12.2168ZM12.2168 2.47949H3.01074C2.71734 2.47949 2.47949 2.71734 2.47949 3.01074V12.2168C2.47949 12.5102 2.71734 12.7481 3.01074 12.7481H12.2168C12.5102 12.7481 12.7481 12.5102 12.7481 12.2168V3.01074C12.7481 2.71734 12.5102 2.47949 12.2168 2.47949ZM6.78697 8.04572L9.54136 5.29134C9.74883 5.08388 10.0852 5.08388 10.2926 5.29134C10.4813 5.47995 10.4984 5.77508 10.344 5.98306L10.2926 6.04264L7.10512 9.23012C6.89559 9.43972 6.56044 9.43455 6.35663 9.23303L6.30449 9.17324L5.24199 7.75658C5.06595 7.52183 5.11352 7.18885 5.34824 7.01283C5.56163 6.85279 5.85622 6.87755 6.04028 7.05973L6.09199 7.11908L6.78697 8.04572L9.54136 5.29134L6.78697 8.04572Z" fill="#2E50C8"/>
</svg>
