<svg width="17" height="17" viewBox="0 0 17 17" fill="none" xmlns="http://www.w3.org/2000/svg">
<path fill-rule="evenodd" clip-rule="evenodd" d="M6.17315 6.5186C6.50276 6.88396 6.39825 7.29788 6.10682 7.69062C6.03772 7.78373 5.95808 7.87548 5.86189 7.97658C5.81572 8.0251 5.77972 8.0616 5.70441 8.13697C5.53339 8.30817 5.38962 8.45201 5.2731 8.56852C5.2166 8.62502 5.60237 9.39591 6.35106 10.1453C7.09933 10.8943 7.87018 11.2804 7.92695 11.2236L8.35796 10.7923C8.59532 10.5547 8.72101 10.4401 8.89374 10.3268C9.25282 10.0912 9.64448 10.0272 9.97481 10.3226C11.0533 11.0941 11.6637 11.5675 11.9627 11.8782C12.5459 12.4841 12.4694 13.4169 11.966 13.949C11.7914 14.1336 11.57 14.355 11.3086 14.6071C9.7271 16.1895 6.38941 15.2265 3.83144 12.666C1.27288 10.1049 0.310427 6.76692 1.88861 5.18789C2.17193 4.90011 2.26535 4.80674 2.54129 4.53485C3.05503 4.02864 4.03084 3.94938 4.62403 4.53535C4.93605 4.84358 5.43349 5.48361 6.17315 6.5186ZM9.1531 11.5877L8.72201 12.0191C7.98923 12.7523 6.7413 12.1273 5.55583 10.9407C4.36954 9.7532 3.74527 8.50574 4.4783 7.77277C4.59466 7.65642 4.73829 7.51271 4.90918 7.34165C4.97813 7.27263 5.00967 7.24066 5.04753 7.20087C5.09911 7.14666 5.14149 7.09905 5.17543 7.05692C4.51991 6.14379 4.0743 5.57322 3.83407 5.33592C3.71001 5.21336 3.43221 5.23593 3.33023 5.33642C3.05823 5.60443 2.96883 5.69379 2.68664 5.98038C1.67171 6.99587 2.44868 9.69054 4.62667 11.8707C6.80397 14.0501 9.49824 14.8275 10.5209 13.8044C10.7783 13.5561 10.988 13.3463 11.1494 13.1756C11.2661 13.0523 11.2869 12.7979 11.1528 12.6585C10.9292 12.4263 10.3821 11.9996 9.43726 11.3212C9.36839 11.3766 9.28373 11.457 9.1531 11.5877Z" fill="white"/>
<g clip-path="url(#clip0_620_54084)">
<path d="M12.5 8.85938C14.9047 8.85938 16.8594 6.90469 16.8594 4.5C16.8594 2.09531 14.9047 0.140625 12.5 0.140625C10.0953 0.140625 8.14062 2.09531 8.14062 4.5C8.14062 6.90469 10.0953 8.85938 12.5 8.85938ZM9.125 6.23672L10.8969 6.22266C11.0938 6.93281 11.4242 7.62187 11.8742 8.24062C10.6719 8.04375 9.66641 7.27734 9.125 6.23672ZM11.3469 3.30469H13.5547C13.7164 4.07812 13.7164 4.87266 13.5687 5.64609L11.3469 5.66016C11.1852 4.87969 11.1852 4.07812 11.3469 3.30469ZM12.4508 8.07891C12.0078 7.50938 11.6844 6.88359 11.4875 6.22266L13.4211 6.20859C13.2172 6.86953 12.8938 7.50234 12.4508 8.07891ZM13.0133 8.26172C13.4773 7.62891 13.8078 6.93281 14.0047 6.20156L15.8961 6.1875C15.3477 7.29141 14.2789 8.08594 13.0133 8.26172ZM16.2969 4.5C16.2969 4.89375 16.2336 5.27344 16.1281 5.625L14.1383 5.63906C14.2789 4.86562 14.2719 4.07812 14.1242 3.30469H16.1C16.2266 3.67734 16.2969 4.08516 16.2969 4.5ZM15.8609 2.74219H13.9906C13.7867 2.03906 13.4633 1.35703 13.0133 0.738281C14.2578 0.907031 15.3055 1.67344 15.8609 2.74219ZM13.407 2.74219H11.4945C11.6984 2.09531 12.0148 1.48359 12.4508 0.921094C12.8867 1.48359 13.2031 2.09531 13.407 2.74219ZM11.8742 0.759375C11.4312 1.37109 11.1078 2.03906 10.9109 2.74219H9.13906C9.68047 1.70859 10.6789 0.95625 11.8742 0.759375ZM10.7773 3.30469C10.6297 4.08516 10.6297 4.87969 10.7703 5.66016L8.89297 5.67422C8.76641 5.30156 8.70312 4.90781 8.70312 4.5C8.70312 4.08516 8.77344 3.67734 8.9 3.30469H10.7773Z" fill="white"/>
</g>
<defs>
<clipPath id="clip0_620_54084">
<rect width="9" height="9" fill="white" transform="translate(8)"/>
</clipPath>
</defs>
</svg>
